<svg width="14" height="18" viewBox="0 0 14 18" fill="none" xmlns="http://www.w3.org/2000/svg">
<path d="M1.99553 1.17484H12.4916C12.983 1.17484 13.491 1.65395 13.491 2.38373V4.23905C13.491 4.81081 13.2959 5.33539 12.9564 5.72192L12.9563 5.72208L9.11689 10.0978L8.99273 10.2393V10.4276V14.346C8.99273 14.483 8.93552 14.5918 8.86854 14.6489L8.86806 14.6493L5.86954 17.2124C5.86946 17.2124 5.86937 17.2125 5.86929 17.2126C5.82347 17.2516 5.77939 17.2638 5.74413 17.2638C5.71744 17.2638 5.68772 17.2571 5.65638 17.2393C5.57772 17.1944 5.49441 17.0769 5.49441 16.9094V10.4276V10.2393L5.37025 10.0978L1.53086 5.72208L1.53073 5.72193C1.19128 5.33539 0.996094 4.81079 0.996094 4.23905V2.38373C0.996094 1.65395 1.50412 1.17484 1.99553 1.17484ZM12.6478 5.17338L12.6478 5.17334C12.8749 4.91452 12.9916 4.5802 12.9916 4.23905V2.38373V1.88373H12.4916H1.99553H1.49553V2.38373V4.23905C1.49553 4.58015 1.6122 4.91451 1.83934 5.17338L5.67873 9.54909C5.87677 9.7748 5.99385 10.0843 5.99385 10.4276V15.2005V16.2856L6.81873 15.5805L8.31817 14.2989L8.49329 14.1492V13.9188V10.4276C8.49329 10.0843 8.61037 9.7748 8.80842 9.54909L12.6478 5.17338Z" fill="#4F4F4F" stroke="#828282"/>
</svg>
