<svg width="31" height="32" viewBox="0 0 31 32" fill="none" xmlns="http://www.w3.org/2000/svg">
<path d="M25.8112 5.36431C24.466 3.93049 22.8568 2.78682 21.0775 2.00005C19.2983 1.21327 17.3847 0.799138 15.4483 0.781817C13.512 0.764495 11.5916 1.14433 9.7994 1.89916C8.00717 2.65399 6.37891 3.7687 5.00964 5.17824C3.64037 6.58778 2.55751 8.26392 1.82425 10.1089C1.09099 11.9538 0.722005 13.9306 0.738832 15.924C0.755658 17.9173 1.15796 19.8872 1.92226 21.7187C2.68655 23.5503 3.79754 25.2068 5.1904 26.5916C6.53567 28.0255 8.14486 29.1691 9.92408 29.9559C11.7033 30.7427 13.6169 31.1568 15.5533 31.1741C17.4897 31.1915 19.41 30.8116 21.2022 30.0568C22.9945 29.302 24.6227 28.1873 25.992 26.7777C27.3613 25.3682 28.4441 23.692 29.1774 21.8471C29.9106 20.0021 30.2796 18.0253 30.2628 16.032C30.246 14.0387 29.8437 12.0688 29.0794 10.2372C28.3151 8.40567 27.2041 6.74915 25.8112 5.36431ZM8.20915 26.9069C8.49873 25.1316 9.39016 23.5195 10.7251 22.3568C12.0601 21.1941 13.7521 20.5561 15.5008 20.5561C17.2495 20.5561 18.9416 21.1941 20.2765 22.3568C21.6115 23.5195 22.5029 25.1316 22.7925 26.9069C20.6481 28.4285 18.1052 29.2433 15.5008 29.2433C12.8964 29.2433 10.3535 28.4285 8.20915 26.9069ZM10.8487 14.0864C10.8487 13.1429 11.1204 12.2205 11.6293 11.4358C12.1382 10.651 12.8616 10.0391 13.7082 9.67738C14.5547 9.31562 15.4864 9.22021 16.3856 9.4032C17.2848 9.58618 18.1111 10.0394 18.7603 10.7055C19.4094 11.3716 19.8523 12.2209 20.0328 13.1459C20.2134 14.071 20.1237 15.0304 19.7749 15.9029C19.4261 16.7755 18.834 17.5221 18.0733 18.0485C17.3126 18.5749 16.4174 18.8574 15.5008 18.8603C14.2709 18.8603 13.0913 18.3574 12.2216 17.4621C11.3519 16.5668 10.8633 15.3525 10.8633 14.0864H10.8487ZM24.2508 25.6909C23.8724 24.326 23.1999 23.0666 22.2834 22.0061C21.3668 20.9457 20.2299 20.1116 18.9571 19.5659C20.1041 18.7987 20.9796 17.6703 21.4528 16.3491C21.9261 15.0279 21.9718 13.5846 21.5831 12.2345C21.1945 10.8844 20.3923 9.69972 19.2962 8.85724C18.2 8.01476 16.8688 7.55958 15.5008 7.55958C14.1329 7.55958 12.8016 8.01476 11.7055 8.85724C10.6094 9.69972 9.80717 10.8844 9.41851 12.2345C9.02984 13.5846 9.07555 15.0279 9.54879 16.3491C10.022 17.6703 10.8975 18.7987 12.0446 19.5659C10.7717 20.1116 9.63479 20.9457 8.71828 22.0061C7.80177 23.0666 7.12928 24.326 6.75082 25.6909C4.85142 23.88 3.52637 21.5218 2.94856 18.924C2.37075 16.3262 2.56701 13.6095 3.51173 11.1282C4.45645 8.64696 6.10576 6.51646 8.24446 5.01469C10.3832 3.51293 12.9119 2.70964 15.5008 2.70964C18.0897 2.70964 20.6185 3.51293 22.7572 5.01469C24.8959 6.51646 26.5452 8.64696 27.4899 11.1282C28.4346 13.6095 28.6309 16.3262 28.0531 18.924C27.4753 21.5218 26.1502 23.88 24.2508 25.6909Z" fill="#845B04"/>
</svg>
